<?xml version="1.0" encoding="utf-8"?>
<!-- Generator: Adobe Illustrator 19.0.0, SVG Export Plug-In . SVG Version: 6.00 Build 0)  -->
<svg version="1.1" id="Layer_1" xmlns="http://www.w3.org/2000/svg" xmlns:xlink="http://www.w3.org/1999/xlink" x="0px" y="0px"
	 viewBox="0 0 500 500" style="enable-background:new 0 0 500 500;" xml:space="preserve">
<style type="text/css">
	.st0{fill:#652D89;}
	.st1{fill:#FFFFFF;}
</style>
<g id="XMLID_2_">
	<path id="XMLID_52_" class="st0" d="M252.5,256l3.6-3.6c-1.5-6.6,2.7-13.1,9.3-14.6c2.2-0.5,4.5-0.4,6.7,0.4l-8.3,8l6.1,6.3
		l8.3-7.8c0.6,1.7,0.7,3.6,0.5,5.4c-0.2,2.9-1.4,5.6-3.4,7.6c-3.1,3-7.6,4.1-11.7,2.7l-3.9,3.9l-11.5,11.5l-4,3.8
		c1,5.1-2.3,10-7.4,11c-5.1,1-10-2.3-11-7.4c-1-5.1,2.3-10,7.4-11c1-0.2,2.1-0.2,3.2-0.1l4.6-4.6L252.5,256z"/>
	<circle id="XMLID_53_" class="st1" cx="235" cy="281.3" r="3.2"/>
	<path id="XMLID_54_" class="st0" d="M241,267.5l-12.7-13.7l-0.5-0.8l-3.4-13.3c-0.2-0.6,0-1.2,0.4-1.6c0.4-0.4,1.1-0.5,1.6-0.3
		l13,4.4l0.7,0.6l12.3,13.3l7.4,7.8l13.1,14.1c1.6,1.6,1.6,4.2,0,5.9l0,0l-6.1,5.6c-1.7,1.5-4.3,1.4-5.9-0.3l0,0l-12.6-13.6
		L241,267.5z"/>
	<polygon id="XMLID_55_" class="st1" points="241.1,247.9 240.3,247.9 240.3,247.9 239.9,248.3 239.9,249.1 239.9,249.1 
		263.6,274.7 264.4,274.7 264.4,274.7 264.8,274.3 264.8,273.5 264.8,273.5 	"/>
	<polygon id="XMLID_56_" class="st1" points="237.8,243.8 231.3,241.6 228.4,244.3 230.1,250.9 	"/>
	<path id="XMLID_57_" class="st1" d="M262.2,285.4c1,1.1,2.7,1.3,3.8,0.3l0.1-0.1l3.9-3.6c1.1-1,1.1-2.7,0.2-3.8l-0.2-0.2l-2.4-2.2
		l-7.8,7.2L262.2,285.4z"/>
	<line id="XMLID_58_" class="st0" x1="196.8" y1="211.8" x2="196.8" y2="211.8"/>
	<circle id="XMLID_59_" class="st0" cx="295" cy="245" r="3.5"/>
	<circle id="XMLID_60_" class="st0" cx="285.7" cy="227.9" r="3.5"/>
	<circle id="XMLID_61_" class="st0" cx="219.4" cy="226.5" r="3.5"/>
	<circle id="XMLID_62_" class="st0" cx="208.1" cy="243.3" r="3.5"/>
	<path id="XMLID_63_" class="st0" d="M210.9,269.5c-0.6,0.1-1.1,0.1-1.7,0l-1.2,2l-1.8-0.7l0.5-2.3c-0.5-0.3-0.9-0.7-1.2-1.2
		l-2.3,0.5l-0.8-1.8l2-1.3c-0.1-0.6-0.1-1.1,0-1.7l-2-1.2l0.7-1.7l2.3,0.5c0.3-0.5,0.7-0.9,1.2-1.2l-0.6-2.3l1.8-0.8l1.3,2
		c0.5-0.1,1.1-0.1,1.6,0l1.2-2l1.8,0.7l-0.5,2.3c0.5,0.3,0.9,0.7,1.2,1.2l2.3-0.6l0.8,1.8l-2,1.3c0.1,0.6,0.1,1.1,0,1.7l2,1.2
		l-0.7,1.8l-2-0.6c-0.3,0.5-0.7,0.9-1.2,1.2l0.5,2.2l-1.8,0.8L210.9,269.5z"/>
	<circle id="XMLID_64_" class="st0" cx="215.9" cy="285.9" r="3.5"/>
	<circle id="XMLID_65_" class="st0" cx="228.2" cy="301.7" r="3.5"/>
	<path id="XMLID_66_" class="st0" d="M191.9,149.3c-0.4-2.6,0.2-5.2,1.6-7.4l-7.8-7.8c-6.5,8-6.5,19.4,0,27.4l7.8-7.8
		C192.6,152.4,192.1,150.9,191.9,149.3z"/>
	<path id="XMLID_67_" class="st0" d="M215.9,164.4l-7.8-7.8c-3.5,2.3-8,2.3-11.5,0l-7.8,7.8c8,6.5,19.4,6.5,27.4,0H215.9z"/>
	<path id="XMLID_68_" class="st0" d="M297.8,126c-6.4,0-12.4,2.8-16.5,7.6h32.9C310.1,128.8,304.1,126.1,297.8,126z"/>
	<path id="XMLID_69_" class="st0" d="M200.6,137.3c2.6-0.4,5.2,0.1,7.4,1.6l7.8-7.8c-8-6.5-19.4-6.5-27.4,0l7.8,7.8
		C197.5,138,199,137.5,200.6,137.3z"/>
	<path id="XMLID_70_" class="st0" d="M212.6,146c0.4,2.6-0.2,5.2-1.7,7.4l7.8,7.8c6.5-8,6.5-19.4,0-27.4l-7.8,7.8
		C211.8,143,212.4,144.5,212.6,146z"/>
	<path id="XMLID_71_" class="st0" d="M202.3,141.5h-1c-3.4,0.5-5.7,3.7-5.2,7c0.5,3.4,3.7,5.7,7,5.2c1.7-0.2,3.1-1.2,4.1-2.5
		c0.9-1.3,1.3-2.8,1.1-4.3C207.9,143.8,205.3,141.5,202.3,141.5z"/>
	<path id="XMLID_72_" class="st0" d="M278.5,138c-1.2,2.3-1.9,4.9-2.2,7.5h43c-0.3-2.6-1-5.2-2.2-7.5H278.5z"/>
	<path id="XMLID_73_" class="st0" d="M297.8,169.3c6.3,0,12.3-2.8,16.4-7.6h-32.9C285.5,166.5,291.5,169.3,297.8,169.3z"/>
	<path id="XMLID_74_" class="st0" d="M320.5,313.8l2.3-2.6c-0.7,0.8-1.5,1.5-2.4,2.2L320.5,313.8z"/>
	<path id="XMLID_75_" class="st0" d="M323,311.2l2-2.4C324.3,309.6,323.7,310.4,323,311.2z"/>
	<path id="XMLID_76_" class="st0" d="M278.5,157.3h38.6c1.2-2.3,2-4.9,2.2-7.5h-43C276.6,152.5,277.3,155,278.5,157.3z"/>
	<path id="XMLID_77_" class="st0" d="M303,273.7l-2.7-3.9c-3.1,0.8-5.9,2.1-8.5,3.9l1.3,4.4c-1.7,1.3-3.3,2.9-4.5,4.7l-4.8-1
		c-1.6,2.7-2.8,5.6-3.4,8.6l4.2,2.5c-0.3,2.2-0.3,4.4,0,6.5l-3.9,2.7c0.8,3.1,2.1,5.9,3.9,8.5l4.6-1.2c1,1.3,2.2,2.5,3.4,3.5
		c2-3.1,3.9-6.2,5.8-9.4c-4.3-4.7-4.1-11.9,0.6-16.3c2-1.9,4.7-3,7.4-3.1c1-3.5,1.6-7.1,2-10.7C306.6,273.4,304.8,273.5,303,273.7z"
		/>
	<path id="XMLID_78_" class="st0" d="M231.1,340.7L231.1,340.7C231.4,340.4,231.8,339.7,231.1,340.7z"/>
	<path id="XMLID_79_" class="st0" d="M264.7,336.4C264.7,336.4,266.4,337.5,264.7,336.4l2.3-9.7l-7.8-3.2l-5.2,8.3
		c-2.4-0.4-4.8-0.4-7.1,0l-5.3-8.5l-7.8,3.1l2.2,9.7c-1.8,1.3-3.4,2.9-4.8,4.7l7.2,6.5c4.6-6.5,13.5-8,20-3.5
		c1.3,0.9,2.5,2.1,3.5,3.5l7.2-6.5C267.7,339.2,266.3,337.7,264.7,336.4z"/>
	<path id="XMLID_88_" class="st0" d="M341.5,173.9c4.7-7.8,7.2-16.8,7.2-25.9v-0.4c0-50.4,10.6-78.2,10.6-78.2h-2.5
		c-20.9-0.1-41.6,4.4-60.7,13.1c-27.5-19.9-64.7-19.9-92.2,0c-19-8.7-39.8-13.2-60.7-13.2h-2.5c0,0,10.6,28,10.7,78.2v0.4
		c0,9.1,2.5,18.1,7.2,25.9c-44.8,56.9-1.6,134.1,67.5,180c3.4,2.3,7,4.5,10.6,6.7c4.4,2.6,8.8,5.1,13.4,7.4c4.6-2.3,9-4.9,13.4-7.5
		c3.5-2.1,7-4.3,10.4-6.6c14.1-9.3,27.2-20.1,39.1-32.1c2.6-2.6,5.1-5.2,7.5-7.8v-0.5c0.8-0.7,1.5-1.4,2.2-2.2
		c0.7-0.7,1.4-1.5,2-2.4c2.3-2.8,4.6-5.6,6.7-8.5C362,259.3,371.3,212,341.5,173.9z M250,73.5c14.2,0,28.1,4.1,39.9,11.9
		c-1,0.5-2.1,1.1-3,1.6c-17.3,10.4-31.1,25.3-37,43c-5.9-17.9-19.6-32.8-37-43c-0.9-0.5-2-1.1-2.9-1.6C222,77.7,235.8,73.5,250,73.5
		z M262.2,220.4c-1.6,2.5-4,4.4-6.7,5.5c-3.4,1.4-7.3,1.4-10.8,0c-3.7-1.5-6.6-4.5-8.1-8.1c8.9-1.9,18.1-1.9,27,0
		C263.2,218.7,262.7,219.6,262.2,220.4z M257.6,200c-2.3,2.5-4.9,4.8-7.6,6.9c-2.7-2.1-5.2-4.4-7.6-6.9c-4.1-4.4-8.5-10.4-8.5-16.3
		l2.3-2.8l13.7-16.6l13.7,16.6l2.3,2.8C266.1,189.5,261.8,195.5,257.6,200z M187.1,186l-3.6-1.6c-1.2-0.5-1.7-1.9-1.2-3.1l1.6-3.4
		l0.7-0.9c-2.1-1.3-4.1-2.8-5.9-4.5l-0.6,0.9l-2.9,2.4c-1,0.8-2.5,0.7-3.4-0.3l-2.5-3c-0.8-1-0.7-2.5,0.3-3.3l0,0l2.9-2.4l0.9-0.4
		c-1.4-2.1-2.5-4.3-3.4-6.6l-0.9,0.5l-3.7,0.9c-1.3,0.3-2.6-0.4-2.9-1.7l-0.9-3.9c-0.3-1.3,0.5-2.5,1.8-2.9l3.7-0.9h1.1
		c-0.3-2.4-0.3-4.9,0-7.4h-1l-3.7-0.8c-1.3-0.2-2.1-1.5-1.9-2.8l0-0.1l0.8-3.9c0.3-1.3,1.5-2.1,2.8-1.8l3.9,0.8l0.9,0.4
		c0.7-2.1,1.7-4.2,2.8-6.2l0.3-0.4l-0.8-0.4l-3.4-2c-1-0.8-1.2-2.3-0.4-3.3l0,0l2.4-3.1c0.8-1,2.3-1.2,3.3-0.4l3,2.3l0.6,0.7
		c1.7-1.7,3.6-3.3,5.7-4.6l-0.5-0.7l-1.7-3.4c-0.6-1.2-0.1-2.6,1.1-3.2l3.5-1.7c1.2-0.6,2.6-0.1,3.2,1.1l0,0l1.7,3.4l0.2,0.8
		c2.3-0.8,4.7-1.4,7.2-1.7v-0.8v-3.9c0-1.3,1.1-2.3,2.4-2.3h3.9c1.3,0,2.4,1,2.4,2.3v3.9v0.7c1.6,0.2,3.3,0.5,4.9,1v-0.7l1.4-3.5
		c0.5-1.2,1.9-1.8,3.1-1.3l0,0l3.6,1.4c1.2,0.5,1.8,1.9,1.3,3.1l-1.4,3.5l-0.4,0.6l0.6,0.3c1.9,1.1,3.8,2.4,5.4,3.9l0.4-0.6l2.8-2.5
		c0.9-0.9,2.4-0.9,3.4,0l2.6,2.9c0.9,0.9,0.9,2.4,0,3.3l0,0l-3.1,2.3l-0.7,0.4c1.4,2,2.6,4.2,3.6,6.4l0.7-0.4l3.7-1.1
		c1.3-0.4,2.6,0.4,2.9,1.6l1.1,3.7c0.4,1.3-0.4,2.6-1.6,2.9l-3.7,1.1h-0.8c0.4,2.4,0.5,4.9,0.4,7.3h0.8l3.9,0.7
		c1.3,0.2,2.1,1.5,1.9,2.7l-0.7,3.9c-0.3,1.3-1.5,2.1-2.8,1.9l-3.9-0.7l-0.8-0.3c-0.7,2.3-1.7,4.6-2.9,6.7l0.8,0.4l3.1,2.2
		c1.1,0.7,1.3,2.2,0.6,3.3l0,0l-2.3,3.1c-0.8,1.1-2.3,1.3-3.3,0.5l-3.1-2.2l-0.6-0.7c-1.7,1.8-3.6,3.4-5.6,4.8l0.6,0.7l1.8,3.3
		c0.6,1.2,0.2,2.6-1,3.2l-3.4,1.8c-1.2,0.6-2.6,0.2-3.2-1l-1.9-3.3l-0.3-0.9c-2.3,0.9-4.7,1.5-7.2,1.9l0.3,1v3.9
		c0,1.3-1,2.4-2.3,2.4h-3.9c-1.3,0-2.4-1-2.5-2.3l0,0v-3.9l0.2-0.9c-2.5-0.2-4.9-0.7-7.3-1.4v1.1l-1.6,3.4
		C189.7,186,188.3,186.5,187.1,186z M273.8,352.3L273.8,352.3C273.8,352.3,274.1,354.2,273.8,352.3z M308.3,273.5
		c-0.4,3.6-1,7.2-2,10.7c-1.9,6.7-4.6,13.1-8.1,19.2c-1.8,3.2-3.7,6.3-5.8,9.4c-6.7,9.8-14.3,19-22.7,27.4l-0.7,0.7l-7.2,6.4
		c-6.8,6.2-11.7,9.8-11.7,9.9c0,0-4.9-3.7-11.7-9.9l-7.2-6.5v-0.2l-0.7-0.4c-17.1-17.2-38.9-44.2-38.9-71.9c0-16.4,10-33.3,26.5-43
		c0.8,2.1,1.9,4.2,3.1,6.1l6.1-1.4c1.7,2.2,3.7,4.2,5.9,5.9l-1.4,6.1l0.9,0.5l1.8,1h0.4c0.8,0.4,1.6,0.7,2.4,1.1
		c1.8,0.7,3.6,1.2,5.4,1.6l3.4-5.2c2.8,0.4,5.6,0.4,8.3,0l3.4,5.2c3.9-0.9,7.6-2.5,11-4.6l-1.4-6.1c2.2-1.7,4.2-3.7,5.9-5.9l6.1,1.4
		l0.5-0.9c0.4-0.6,0.7-1.2,1-1.8v-0.4c0.4-0.8,0.8-1.6,1.1-2.4c16.5,9.9,26.4,26.7,26.4,43C308.5,269.9,308.4,271.7,308.3,273.5z
		 M338.2,156.7c-0.3,1.3-1.5,2.1-2.8,1.9l-3.9-0.7l-0.8-0.3c-0.7,2.3-1.7,4.6-2.9,6.7l0.8,0.4l3.1,2.2c1,0.8,1.3,2.2,0.5,3.3l0,0
		l-2.3,3.1c-0.8,1-2.3,1.3-3.3,0.5l-3.1-2.2l-0.6-0.7c-1.7,1.8-3.6,3.4-5.6,4.8l0.6,0.7l1.8,3.3c0.6,1.2,0.2,2.6-1,3.2l-3.4,1.8
		c-1.2,0.6-2.6,0.2-3.2-1l-1.8-3.3l-0.3-0.9c-2.3,0.9-4.7,1.5-7.2,1.9l0.3,1v3.9c0,1.3-1,2.4-2.3,2.4h-3.9c-1.3,0-2.4-1-2.5-2.3
		v-3.9c0-0.4,0.1-0.7,0.2-1c-2.5-0.2-4.9-0.7-7.3-1.4v1.1l-1.6,3.4c-0.5,1.2-1.9,1.8-3.1,1.2l0,0l-3.6-1.6c-1.2-0.5-1.7-1.9-1.2-3.1
		l1.6-3.4l0.7-0.9c-2.1-1.3-4.1-2.8-5.9-4.5l-0.6,0.9l-2.9,2.4c-1,0.8-2.5,0.7-3.4-0.3l-2.5-3c-0.8-1-0.7-2.5,0.3-3.3l0,0l2.9-2.4
		c0.3-0.2,0.6-0.4,1-0.5c-1.3-2-2.4-4.2-3.3-6.5l-0.9,0.5l-3.7,0.9c-1.3,0.3-2.6-0.4-2.9-1.7l-0.9-3.9c-0.3-1.3,0.5-2.5,1.7-2.8l0,0
		l3.7-0.9h1.1c-0.3-2.4-0.3-4.9,0-7.4h-1l-3.7-0.8c-1.3-0.3-2.1-1.5-1.8-2.8l0.8-3.9c0.3-1.3,1.5-2.1,2.8-1.8l3.9,0.8l0.9,0.4
		c0.7-2.1,1.7-4.2,2.8-6.2l0.3-0.4l-0.8-0.4l-3.5-1.9c-1-0.8-1.2-2.3-0.4-3.3l0,0l2.4-3.1c0.8-1,2.3-1.2,3.3-0.4l3,2.3l0.6,0.7
		c1.7-1.7,3.6-3.3,5.7-4.6l-0.5-0.7l-1.7-3.4c-0.6-1.2-0.1-2.6,1.1-3.2l3.5-1.7c1.2-0.6,2.6-0.1,3.2,1.1l1.7,3.4l0.2,0.8
		c2.3-0.8,4.7-1.4,7.2-1.7v-0.8v-3.9c0-1.3,1.1-2.3,2.4-2.3h3.9c1.3,0,2.4,1,2.4,2.3v3.9v0.7c1.6,0.2,3.3,0.5,4.9,1v-0.7l1.4-3.5
		c0.5-1.2,1.9-1.8,3.1-1.3l3.6,1.4c1.2,0.5,1.8,1.9,1.3,3.1l-1.4,3.5l-0.4,0.6l0.6,0.3c1.9,1.1,3.8,2.4,5.4,3.9l0.4-0.6l2.8-2.5
		c0.9-0.9,2.4-0.9,3.4,0l2.6,2.9c0.9,0.9,0.9,2.4,0,3.3l0,0l-2.8,2.5l-0.7,0.4c1.4,2,2.6,4.2,3.6,6.4l0.7-0.4l3.7-1.1
		c1.3-0.3,2.6,0.4,2.9,1.6l1.1,3.7c0.4,1.3-0.4,2.6-1.6,2.9l-3.7,1.1h-0.8c0.2,2.4,0.2,4.8-0.2,7.2h0.8l3.9,0.7
		c1.3,0.2,2.1,1.5,1.9,2.7L338.2,156.7z"/>
	<path id="XMLID_97_" class="st0" d="M264.7,411.1c2,0,5.3,0,6.6-1.4c0.9-1.6,1.3-3.4,1.1-5.2v-12.1c-4.5-1.3-9.2-1.9-13.9-1.9
		c-2.8-0.1-5.7,0.5-8.3,1.6c-2,0.9-3.7,2.4-4.9,4.3c-1.1,2-1.7,4.2-1.6,6.5v16.9c0,2.3,0.5,4.5,1.6,6.5c1.1,1.9,2.8,3.4,4.8,4.3
		c2.6,1.1,5.5,1.6,8.3,1.5c1.6,0,3.2,0,4.8,0c1.6,0,3.1-0.3,4.6-0.5l3.4-0.5c0-1.6-0.4-4.9-1.8-5.9c-1.5-0.7-3.2-0.9-4.9-0.6
		l-3.9,0.3h-2.3c-1.4,0-2.7-0.3-3.9-0.9c-0.9-0.5-1.7-1.3-2.1-2.3c-0.4-1-0.5-2.1-0.5-3.2v-13.8c0-1.1,0.1-2.2,0.5-3.2
		c0.4-1,1.1-1.9,2-2.5c1.2-0.6,2.6-1,3.9-0.9h1.8h1.8l2.1,0.2h0.5L264.7,411.1z M124.7,418.9v11.7c2.2,0.6,4.4,1.1,6.7,1.4
		c2.4,0.3,4.8,0.5,7.3,0.5c2.8,0.1,5.7-0.5,8.3-1.6c2-0.9,3.7-2.4,4.9-4.3c1.1-2,1.7-4.2,1.6-6.4v-2.1c0.2-3.2-0.5-6.4-2-9.2
		c-2.2-2.7-5.6-4.1-9.1-3.9h-0.6v-3.2h10.1c0-1.8,0-4.7-1.3-5.8c-1.4-0.8-3-1.1-4.6-1h-4.2v-3.9h-8.3v3.9h-7.3c0,1.8,0,4.7,1.3,5.8
		c1.4,0.8,3,1.1,4.6,1h1.3v9.3h5c1.9-0.2,3.8,0.4,5.2,1.7c1.1,1.5,1.6,3.4,1.5,5.3v0.5c0,1.1-0.2,2.2-0.5,3.2
		c-0.4,1.1-1.1,1.9-2.1,2.5c-1.2,0.6-2.6,0.9-3.9,0.9c-2.1,0-4.1-0.2-6.1-0.6v-0.4c0-0.8-0.1-1.5-0.3-2.3c-0.1-0.5-0.4-1.1-0.7-1.5
		C130.1,419,126.7,419,124.7,418.9 M158.3,402c0.9,5.7,1.4,7.8,8.1,6.9c2.4-0.8,4.9-0.8,7.3,0c0.9,0.5,1.7,1.3,2.1,2.3
		c0.4,1.1,0.6,2.2,0.5,3.4v3.7c0,1.1-0.2,2.3-0.5,3.3c-0.4,1-1.1,1.8-2,2.3c-1.2,0.6-2.6,0.9-3.9,0.8c-2.3,0-4.5-0.8-6.7-0.8
		c-0.7,0-1.5,0.1-2.2,0.3c-0.5,0.1-1,0.4-1.4,0.7c-1.3,1.1-1.3,4.2-1.3,6c1.8,0.4,3.7,0.7,5.6,0.9c2,0.2,4,0.3,6.1,0.3
		c2.9,0.1,5.8-0.5,8.4-1.6c2-0.9,3.7-2.4,4.8-4.2c1.1-2,1.6-4.2,1.5-6.5v-6.8c0.1-2.2-0.5-4.5-1.5-6.5c-1.1-1.9-2.8-3.3-4.8-4.2
		c-2.7-1.1-5.5-1.7-8.4-1.6c-2,0-4.1,0.1-6.1,0.3c-1.6,0-3.3,0.4-4.9,0.8L158.3,402z M239.1,432.1v-19.2c0-2.2-0.5-4.5-1.6-6.4
		c-1.2-1.9-2.9-3.4-4.9-4.3c-2.6-1.1-5.4-1.7-8.3-1.6c-3.2,0-6.3,0.3-9.4,1.1c-3.5-0.7-7.1-1-10.7-1.1c-2.8-0.1-5.7,0.5-8.3,1.6
		c-2,0.9-3.7,2.4-4.9,4.3c-1.1,1.9-1.7,4.2-1.7,6.4v19c2.2,0,5.8,0,7.1-1.6c1-1.7,1.4-3.6,1.2-5.6v-10.2c0-1.1,0.2-2.2,0.5-3.2
		c0.4-1,1.1-1.9,2-2.5c1.2-0.6,2.6-1,3.9-0.9c2.1,0,4.2,0.2,6.2,0.4v13.3c2,0,5.4,0,6.6-1.4c0.8-1.2,1.1-2.5,1.1-3.9
		c0-2.6,0-5.3,0-7.8c2.1-0.3,4.1-0.4,6.2-0.4c1.4-0.1,2.7,0.3,3.9,0.9c0.9,0.6,1.7,1.4,2,2.5c0.4,1,0.6,2.1,0.5,3.2V425
		c-0.2,1.9,0.2,3.9,1.2,5.6c1.4,1.5,4.9,1.6,7.1,1.6 M276.8,420.1v10.4c2,0.6,4.1,1,6.2,1.3c4,0.6,8,0.6,12,0
		c1.4-0.2,2.7-0.7,3.9-1.3c1-0.5,1.8-1.3,2.4-2.2c2.3-3.6,1.6-8.5,1.6-12.6c0-1.3,0-2.7,0-3.9c-0.1-1-0.3-1.9-0.7-2.8
		c-0.4-0.8-0.9-1.5-1.6-2c-1-0.7-2-1.2-3.1-1.6c-1.7-0.6-3.4-1.1-5.2-1.5c-1.2-0.3-2.5-0.6-3.6-0.9c-0.8-0.2-1.5-0.5-2.1-1
		c-0.3-0.3-0.6-0.6-0.8-1.1h-7.8c0.1,1.4,0.4,2.7,0.9,3.9c0.4,0.8,1,1.4,1.7,2c0.9,0.6,1.9,1.1,3,1.5c1.6,0.5,3.1,0.9,4.7,1.3
		c1.3,0.3,2.6,0.5,3.9,0.9c0.8,0.2,1.5,0.6,2.2,1.1c0.5,0.4,0.8,1.1,0.9,1.7c0.1,0.7,0.1,1.5,0,2.2c0,2.4,0.5,7.4-1.2,9.1
		c-0.6,0.5-1.3,0.8-2,0.8c-2.7,0.4-5.4,0.4-8.1,0c0.1-1.4-0.3-2.7-1-3.9c-1.2-1.3-4.3-1.4-6.2-1.4 M319.1,391h-7.8
		c-0.2,2.6,1.2,5,3.4,6.2c0.9,0.4,1.8,0.7,2.7,0.9c0.8,0.1,1.5,0.5,2.1,1c0.7,1.5,1,3.1,0.9,4.7h-0.5c-1.2,0.2-2.4,0.4-3.5,0.8
		c-1.8,0.6-3.5,1.5-4.9,2.8c-1.2,1.1-2.1,2.4-2.7,3.9c-0.6,1.4-0.8,3-0.8,4.5v4.3c0,1.4,0.2,2.9,0.7,4.2c0.6,1.5,1.5,2.8,2.7,3.9
		c1.4,1.3,3.1,2.2,4.9,2.8c4.8,1.4,9.9,1.4,14.7,0c1.8-0.6,3.4-1.5,4.8-2.8c1.2-1.1,2.1-2.4,2.7-3.9c0.6-1.4,0.8-3,0.8-4.5v-4.3
		c0-1.5-0.3-3.1-0.8-4.5c-0.6-1.5-1.5-2.8-2.7-3.9c-1.4-1.3-3-2.2-4.8-2.8l-1.8-0.5c0.2-2.2,0-4.4-0.4-6.5c-0.3-0.8-0.9-1.5-1.7-1.8
		c-1-0.3-2-0.6-3.1-0.8c-1.1-0.2-2.2-0.6-3.2-1.2c-0.5-0.3-0.8-0.8-1.1-1.3c-0.2-0.5-0.4-1-0.4-1.6 M331,418.9
		c0.1,1.7-0.6,3.3-1.8,4.3c-3.4,2.1-7.7,2.1-11.1,0c-1.2-1.1-1.9-2.7-1.8-4.3v-2.7c-0.1-1.7,0.6-3.2,1.8-4.3c3.4-2.1,7.7-2.1,11.1,0
		c1.2,1.1,1.9,2.7,1.8,4.3V418.9z M344,431.8c2.2,0,5.8,0,7.1-1.6c1-1.7,1.4-3.6,1.2-5.6c0-3.7,0-7.4,0-11.1
		c-0.1-1.7,0.6-3.2,1.8-4.3c3.4-2,7.7-2,11.1,0c1.2,1.1,1.9,2.7,1.8,4.3v11.1c-0.2,1.9,0.2,3.9,1.2,5.6c1.4,1.5,4.9,1.6,7.1,1.6
		v-18.9c0-1.5-0.3-3.1-0.9-4.5c-0.6-1.5-1.5-2.8-2.7-3.9c-1.4-1.3-3.1-2.2-4.9-2.8c-4.8-1.4-9.9-1.4-14.7,0
		c-1.8,0.6-3.4,1.5-4.8,2.8c-1.2,1.1-2.1,2.4-2.7,3.9c-0.6,1.4-0.9,3-0.9,4.5L344,431.8z"/>
</g>
</svg>
